<?xml version="1.0" encoding="UTF-8"?>
<svg width="3000px" height="3000px" viewBox="0 0 3000 3000" version="1.1" xmlns="http://www.w3.org/2000/svg" xmlns:xlink="http://www.w3.org/1999/xlink">
    <title>MQTTJS_oval Copy</title>
    <defs>
        <circle id="path-1" cx="1500" cy="1500" r="1500"></circle>
    </defs>
    <g id="MQTTJS_oval-Copy" stroke="none" stroke-width="1" fill="none" fill-rule="evenodd">
        <mask id="mask-2" fill="white">
            <use xlink:href="#path-1"></use>
        </mask>
        <use id="Oval" fill="#FFFFFF" fill-rule="nonzero" xlink:href="#path-1"></use>
        <g id="Group" mask="url(#mask-2)" fill-rule="nonzero">
            <rect id="down" fill="#FFFFFF" x="0" y="1500" width="3000" height="1500"></rect>
            <rect id="up" fill="#000000" x="0" y="0" width="3000" height="1500"></rect>
        </g>
        <path d="M519.968541,1162 L519.968541,693.93663 L697.36134,1162 L761.737124,1162 L937.908969,693.93663 L937.908969,1162 L1009,1162 L1009,601 L906.105087,601 L729.009031,1070.95507 L552.894913,601 L450,601 L450,1162 L519.968541,1162 Z M1369.06169,1174.61739 C1407.75902,1174.61739 1441.36307,1166.69362 1458.14489,1161.51707 C1467.03197,1158.77574 1480.33245,1153.92731 1503.4403,1141.32646 L1588.74675,1210 L1627.24602,1161.51707 L1553.71269,1104.87168 C1588.74675,1067.02541 1606.11894,1032.96566 1619.46902,996.51732 C1632.81909,960.068977 1638,918.536453 1638,882.391502 C1638,793.2755 1612.45258,727.033682 1567.11397,672.997002 C1521.77535,618.960321 1454.5606,587 1369.84377,587 C1285.12694,587 1224.41326,613.758174 1174.09653,668.508629 C1121.2496,726.012243 1099,808.789024 1099,882.391502 C1099,960.172578 1122.39003,1033.73576 1171.84978,1090.73277 C1218.3566,1144.32685 1284.43578,1174.61739 1369.06169,1174.61739 Z M1931.31331,664.645228 L1931.31331,1161 L1856.91023,1161 L1856.91023,664.645228 L1668,664.645228 L1668,598 L2549,598 L2549,664.645228 L2382.78522,664.645228 L2382.78522,1161 L2308.41148,1161 L2308.41148,664.645228 L1931.31331,664.645228 Z M1370.79087,652 C1433.75862,652 1481.73504,679.193405 1511.06217,715.602522 C1540.3893,752.01164 1562,813.500522 1562,883.96214 C1562,915.139847 1558.62096,999.240852 1499.78726,1061.42819 L1424.63938,1002.43859 L1384.37133,1047.85876 L1446.49407,1097.39753 C1413.99665,1110.62264 1387.17508,1112 1370.79087,1112 C1309.35011,1112 1265.23883,1090.7547 1230.05578,1049.70463 C1194.87273,1008.65456 1177,944.616437 1177,883.96214 C1177,829.986859 1189.42895,761.903505 1228.93532,715.602522 C1272.36083,664.708351 1322.76392,652 1370.79087,652 Z" id="Combined-Shape" fill="#FFFFFF" fill-rule="nonzero" mask="url(#mask-2)"></path>
        <g id="js" mask="url(#mask-2)" fill="#000000" fill-rule="nonzero">
            <g transform="translate(771.000000, 1696.000000)" id="Path">
                <path d="M254.063516,885 C326.073535,885 387.941297,863.804878 439.666804,821.414634 C493.420761,778.082385 520.29774,724.388076 520.29774,660.331707 L520.29774,120.827928 L722,120.827928 L722,16 L157.458527,16 L157.458527,120.827928 L404.67602,120.955051 L404.67602,660.331707 C404.67602,697.069919 389.462636,727.685095 359.035867,752.177236 C329.623324,776.669377 294.632541,788.915447 254.063516,788.915447 C215.522943,788.915447 183.067723,776.198374 156.697857,750.764228 C129.313766,726.272087 115.62172,696.127913 115.62172,660.331707 L115.62172,574.138211 L0,574.138211 L0,660.331707 C0,723.44607 25.3556403,776.669377 76.066921,820.001626 C125.763976,863.333875 185.096175,885 254.063516,885 Z"></path>
                <path d="M1112.5,895 C1216.85526,895 1300.94737,870.569554 1364.77632,821.708661 C1427.59211,773.787402 1459,709.422572 1459,628.614173 C1459,560.96063 1422.01974,506.461942 1348.05921,465.11811 C1291.32237,432.230971 1212.80263,407.800525 1112.5,391.826772 C1053.73684,382.430446 1006.11842,365.047244 969.644737,339.677165 C926.078947,310.548556 904.296053,274.372703 904.296053,231.149606 C904.296053,189.805774 923.039474,156.918635 960.526316,132.488189 C999.026316,108.057743 1049.68421,95.8425197 1112.5,95.8425197 C1165.18421,95.8425197 1210.77632,111.816273 1249.27632,143.76378 C1286.76316,176.650919 1310.57237,219.874016 1320.70395,273.433071 L1320.70395,273.433071 L1436.20395,273.433071 C1436.20395,190.745407 1406.82237,124.501312 1348.05921,74.7007874 C1289.29605,24.9002625 1210.77632,0 1112.5,0 C1014.22368,0 935.703947,21.1417323 876.940789,63.4251969 C818.177632,105.708661 788.796053,161.616798 788.796053,231.149606 C788.796053,299.742782 822.230263,357.530184 889.098684,404.511811 C947.861842,444.91601 1022.32895,472.635171 1112.5,487.669291 C1180.38158,498.944882 1232.55921,513.979003 1269.03289,532.771654 C1318.67763,559.081365 1343.5,594.317585 1343.5,638.480315 C1343.5,687.341207 1322.22368,726.335958 1279.67105,755.464567 C1238.13158,784.593176 1182.40789,799.15748 1112.5,799.15748 C1042.59211,799.15748 986.868421,779.425197 945.328947,739.96063 C902.776316,701.435696 881.5,649.755906 881.5,584.92126 L881.5,584.92126 L766,584.92126 C766,678.884514 797.407895,754.055118 860.223684,810.433071 C924.052632,866.811024 1008.14474,895 1112.5,895 Z"></path>
            </g>
        </g>
    </g>
</svg>